<svg id="svg" xmlns="http://www.w3.org/2000/svg" xmlns:xlink="http://www.w3.org/1999/xlink" width="400" height="400" viewBox="0, 0, 400,400"><g id="svgg"><path id="path0" d="M120.043 120.179 C 116.572 124.014,116.280 123.661,155.653 163.067 L 192.556 200.000 155.653 236.933 C 116.059 276.560,116.215 276.370,120.179 279.957 C 124.014 283.428,123.661 283.720,163.067 244.347 L 200.000 207.444 236.933 244.347 C 276.560 283.941,276.370 283.785,279.957 279.821 C 283.428 275.986,283.720 276.339,244.347 236.933 L 207.444 200.000 244.347 163.067 C 283.941 123.440,283.785 123.630,279.821 120.043 C 275.986 116.572,276.339 116.280,236.933 155.653 L 200.000 192.556 163.067 155.653 C 123.440 116.059,123.630 116.215,120.043 120.179 " stroke="none" fill="#000000" fill-rule="evenodd"></path></g></svg>