<svg id="svg" xmlns="http://www.w3.org/2000/svg" xmlns:xlink="http://www.w3.org/1999/xlink" width="400" height="400" viewBox="0, 0, 400,400"><g id="svgg"><path id="path0" d="M122.862 117.623 C 120.991 118.745,118.699 121.063,117.589 122.958 L 115.625 126.309 115.625 200.000 L 115.625 273.691 117.599 277.059 C 118.756 279.034,120.966 281.244,122.941 282.401 L 126.309 284.375 200.000 284.375 L 273.691 284.375 277.059 282.401 C 279.034 281.244,281.244 279.034,282.401 277.059 L 284.375 273.691 284.375 200.000 L 284.375 126.309 282.401 122.941 C 281.244 120.966,279.034 118.756,277.059 117.599 L 273.691 115.625 199.931 115.632 L 126.172 115.640 122.862 117.623 M269.531 125.770 C 274.342 127.108,274.104 123.387,274.251 199.712 C 274.390 271.907,274.397 271.681,271.964 273.201 C 270.825 273.912,146.718 274.861,130.694 274.281 C 125.484 274.093,125.779 278.569,125.806 200.048 C 125.833 123.127,125.593 127.182,130.199 125.801 C 133.370 124.850,266.121 124.821,269.531 125.770 " stroke="none" fill="#000000" fill-rule="evenodd"></path></g></svg>