<svg id="svg" xmlns="http://www.w3.org/2000/svg" xmlns:xlink="http://www.w3.org/1999/xlink" width="400" height="400" viewBox="0, 0, 400,400"><g id="svgg"><path id="path0" d="M34.862 156.291 C 6.716 161.010,-8.696 193.965,4.567 221.070 C 21.791 256.275,77.279 249.925,86.280 211.719 C 94.089 178.578,68.225 150.698,34.862 156.291 M187.500 156.629 C 182.335 157.660,175.000 160.738,175.000 161.874 C 175.000 162.218,174.465 162.500,173.812 162.500 C 171.610 162.500,160.488 174.328,157.969 179.348 C 149.136 196.953,152.523 217.673,166.485 231.445 C 169.861 234.775,173.158 237.500,173.812 237.500 C 174.465 237.500,175.000 237.806,175.000 238.179 C 175.000 239.547,184.556 242.950,191.024 243.885 C 200.688 245.283,215.843 242.584,219.727 238.774 C 220.264 238.247,222.285 236.724,224.219 235.389 C 230.054 231.360,233.503 227.261,236.903 220.313 C 237.429 219.238,238.168 218.139,238.545 217.871 C 242.709 214.904,242.709 185.096,238.545 182.129 C 238.168 181.861,237.429 180.762,236.903 179.688 C 233.498 172.728,230.037 168.619,224.219 164.625 C 222.285 163.298,220.515 161.939,220.285 161.605 C 217.271 157.228,198.658 154.402,187.500 156.629 M346.342 156.643 C 341.477 157.700,335.284 160.109,333.425 161.667 C 332.873 162.129,330.401 164.040,327.931 165.912 C 307.163 181.658,307.163 218.302,327.931 234.099 C 330.401 235.978,333.112 238.042,333.956 238.685 C 351.257 251.892,385.098 242.195,395.433 221.070 C 412.461 186.268,383.700 148.522,346.342 156.643 " stroke="none" fill="#000000" fill-rule="evenodd"></path></g></svg>