<?xml version="1.0" encoding="UTF-8" standalone="no"?><!DOCTYPE svg PUBLIC "-//W3C//DTD SVG 1.1//EN" "http://www.w3.org/Graphics/SVG/1.1/DTD/svg11.dtd"><svg width="100%" height="100%" viewBox="0 0 3840 142" version="1.1" xmlns="http://www.w3.org/2000/svg" xmlns:xlink="http://www.w3.org/1999/xlink" xml:space="preserve" xmlns:serif="http://www.serif.com/" style="fill-rule:evenodd;clip-rule:evenodd;stroke-linejoin:round;stroke-miterlimit:2;"><path id="minimize" d="M3804.5,0l0.23,0.001l0.229,0.002l0.229,0.004l0.228,0.005l0.228,0.006l0.228,0.008l0.227,0.009l0.227,0.011l0.226,0.012l0.226,0.014l0.226,0.015l0.226,0.017l0.225,0.017l0.224,0.02l0.225,0.02l0.223,0.022l0.224,0.024l0.223,0.025l0.222,0.026l0.223,0.027l0.221,0.029l0.222,0.031l0.22,0.031l0.221,0.033l0.22,0.035l0.219,0.035l0.22,0.037l0.218,0.039l0.218,0.04l0.218,0.041l0.217,0.042l0.217,0.044l0.216,0.045l0.216,0.046l0.216,0.048l0.214,0.049l0.215,0.05l0.214,0.051l0.213,0.053l0.213,0.054l0.212,0.056l0.212,0.056l0.211,0.058l0.211,0.06l0.21,0.06l0.21,0.062l0.209,0.063l0.209,0.064l0.208,0.065l0.207,0.067l0.207,0.068l0.207,0.069l0.206,0.071l0.205,0.071l0.205,0.073l0.204,0.074l0.203,0.076l0.203,0.076l0.203,0.078l0.201,0.079l0.201,0.08l0.201,0.081l0.2,0.083l0.199,0.083l0.199,0.085l0.198,0.086l0.198,0.087l0.196,0.089l0.197,0.089l0.195,0.091l0.195,0.092l0.194,0.092l0.194,0.095l0.193,0.095l0.192,0.096l0.192,0.098l0.191,0.098l0.19,0.1l0.19,0.101l0.189,0.102l0.188,0.103l0.188,0.104l0.187,0.105l0.186,0.107l0.185,0.107l0.185,0.109l0.184,0.109l0.183,0.111l0.183,0.112l0.182,0.112l0.181,0.114l0.18,0.115l0.18,0.116l0.179,0.117l0.178,0.118l0.178,0.12l0.176,0.12l0.176,0.121l0.175,0.122l0.175,0.123l0.173,0.125l0.173,0.125l0.172,0.126l0.171,0.128l0.171,0.128l0.169,0.129l0.169,0.131l0.168,0.131l0.168,0.132l0.166,0.133l0.166,0.135l0.164,0.135l0.164,0.136l0.164,0.137l0.162,0.138l0.161,0.139l0.161,0.14l0.16,0.141l0.159,0.142l0.158,0.143l0.157,0.143l0.156,0.145l0.156,0.146l0.154,0.146l0.154,0.148l0.153,0.148l0.152,0.149l0.151,0.15l0.15,0.151l0.149,0.152l0.148,0.153l0.148,0.154l0.146,0.154l0.146,0.156l0.145,0.156l0.143,0.157l0.143,0.158l0.142,0.159l0.141,0.16l0.14,0.161l0.139,0.161l0.138,0.162l0.137,0.164l0.136,0.164l0.135,0.164l0.135,0.166l0.133,0.166l0.132,0.168l0.131,0.168l0.131,0.169l0.129,0.169l0.128,0.171l0.128,0.171l0.126,0.172l0.125,0.173l0.125,0.173l0.123,0.175l0.122,0.175l0.121,0.176l0.12,0.176l0.12,0.178l0.118,0.178l0.117,0.179l0.116,0.18l0.115,0.18l0.114,0.181l0.112,0.182l0.112,0.183l0.111,0.183l0.109,0.184l0.109,0.185l0.107,0.185l0.107,0.186l0.105,0.187l0.104,0.188l0.103,0.188l0.102,0.189l0.101,0.19l0.1,0.19l0.098,0.191l0.098,0.192l0.096,0.192l0.095,0.193l0.095,0.194l0.092,0.194l0.092,0.195l0.091,0.195l0.089,0.197l0.089,0.196l0.087,0.198l0.086,0.198l0.085,0.199l0.083,0.199l0.083,0.2l0.081,0.201l0.08,0.201l0.079,0.201l0.078,0.203l0.076,0.203l0.076,0.203l0.074,0.204l0.073,0.205l0.071,0.205l0.071,0.206l0.069,0.207l0.068,0.207l0.067,0.207l0.065,0.208l0.064,0.209l0.063,0.209l0.062,0.21l0.06,0.21l0.06,0.211l0.058,0.211l0.056,0.212l0.056,0.212l0.054,0.213l0.053,0.213l0.051,0.214l0.05,0.215l0.049,0.214l0.048,0.216l0.046,0.216l0.045,0.216l0.044,0.217l0.042,0.217l0.041,0.218l0.04,0.218l0.039,0.218l0.037,0.22l0.035,0.219l0.035,0.22l0.033,0.221l0.031,0.22l0.031,0.222l0.029,0.221l0.027,0.223l0.026,0.222l0.025,0.223l0.024,0.224l0.022,0.223l0.02,0.225l0.02,0.224l0.017,0.225l0.017,0.226l0.015,0.226l0.014,0.226l0.012,0.226l0.011,0.227l0.009,0.227l0.008,0.228l0.006,0.228l0.005,0.228l0.004,0.229l0.002,0.229l0.001,0.23l0,70.991l-0.001,0.229l-0.002,0.23l-0.004,0.228l-0.005,0.229l-0.006,0.228l-0.008,0.227l-0.009,0.228l-0.011,0.227l-0.012,0.226l-0.014,0.226l-0.015,0.226l-0.017,0.225l-0.017,0.225l-0.02,0.225l-0.02,0.224l-0.022,0.224l-0.024,0.224l-0.025,0.223l-0.026,0.222l-0.027,0.222l-0.029,0.222l-0.031,0.221l-0.031,0.221l-0.033,0.221l-0.035,0.22l-0.035,0.219l-0.037,0.219l-0.039,0.219l-0.04,0.218l-0.041,0.218l-0.042,0.217l-0.044,0.217l-0.045,0.216l-0.046,0.216l-0.048,0.215l-0.049,0.215l-0.05,0.215l-0.051,0.213l-0.053,0.214l-0.054,0.213l-0.056,0.212l-0.056,0.212l-0.058,0.211l-0.06,0.211l-0.06,0.21l-0.062,0.21l-0.063,0.209l-0.064,0.209l-0.065,0.208l-0.067,0.207l-0.068,0.207l-0.069,0.206l-0.071,0.206l-0.071,0.206l-0.073,0.204l-0.074,0.204l-0.076,0.204l-0.076,0.203l-0.078,0.202l-0.079,0.202l-0.08,0.201l-0.081,0.201l-0.083,0.2l-0.083,0.199l-0.085,0.199l-0.086,0.198l-0.087,0.197l-0.089,0.197l-0.089,0.196l-0.091,0.196l-0.092,0.195l-0.092,0.194l-0.095,0.194l-0.095,0.193l-0.096,0.192l-0.098,0.192l-0.098,0.191l-0.1,0.19l-0.101,0.19l-0.102,0.189l-0.103,0.188l-0.104,0.187l-0.105,0.187l-0.107,0.186l-0.107,0.186l-0.109,0.185l-0.109,0.184l-0.111,0.183l-0.112,0.183l-0.112,0.182l-0.114,0.181l-0.115,0.18l-0.116,0.18l-0.117,0.179l-0.118,0.178l-0.12,0.177l-0.12,0.177l-0.121,0.176l-0.122,0.175l-0.123,0.174l-0.125,0.174l-0.125,0.173l-0.126,0.172l-0.128,0.171l-0.128,0.171l-0.129,0.169l-0.131,0.169l-0.131,0.168l-0.132,0.167l-0.133,0.167l-0.135,0.165l-0.135,0.165l-0.136,0.164l-0.137,0.163l-0.138,0.163l-0.139,0.161l-0.14,0.161l-0.141,0.159l-0.142,0.159l-0.143,0.158l-0.143,0.158l-0.145,0.156l-0.146,0.155l-0.146,0.155l-0.148,0.154l-0.148,0.152l-0.149,0.152l-0.15,0.151l-0.151,0.151l-0.152,0.149l-0.153,0.148l-0.154,0.148l-0.154,0.146l-0.156,0.146l-0.156,0.144l-0.157,0.144l-0.158,0.143l-0.159,0.142l-0.16,0.141l-0.161,0.14l-0.161,0.139l-0.162,0.138l-0.164,0.137l-0.164,0.136l-0.164,0.135l-0.166,0.134l-0.166,0.134l-0.168,0.132l-0.168,0.131l-0.169,0.131l-0.169,0.129l-0.171,0.128l-0.171,0.127l-0.172,0.127l-0.173,0.125l-0.173,0.124l-0.175,0.124l-0.175,0.122l-0.176,0.121l-0.176,0.12l-0.178,0.119l-0.178,0.118l-0.179,0.117l-0.18,0.116l-0.18,0.115l-0.181,0.114l-0.182,0.113l-0.183,0.112l-0.183,0.111l-0.184,0.109l-0.185,0.109l-0.185,0.107l-0.186,0.106l-0.187,0.106l-0.188,0.104l-0.188,0.103l-0.189,0.102l-0.19,0.101l-0.19,0.1l-0.191,0.098l-0.192,0.098l-0.192,0.096l-0.193,0.095l-0.194,0.094l-0.194,0.093l-0.195,0.092l-0.195,0.091l-0.197,0.089l-0.196,0.088l-0.198,0.088l-0.198,0.086l-0.199,0.084l-0.199,0.084l-0.2,0.083l-0.201,0.081l-0.201,0.08l-0.201,0.079l-0.203,0.078l-0.203,0.076l-0.203,0.075l-0.204,0.075l-0.205,0.072l-0.205,0.072l-0.206,0.07l-0.207,0.07l-0.207,0.068l-0.207,0.066l-0.208,0.066l-0.209,0.064l-0.209,0.063l-0.21,0.062l-0.21,0.06l-0.211,0.059l-0.211,0.058l-0.212,0.057l-0.212,0.055l-0.213,0.055l-0.213,0.052l-0.214,0.052l-0.215,0.05l-0.214,0.049l-0.216,0.048l-0.216,0.046l-0.216,0.045l-0.217,0.044l-0.217,0.042l-0.218,0.041l-0.218,0.04l-0.218,0.038l-0.22,0.037l-0.219,0.036l-0.22,0.034l-0.221,0.033l-0.22,0.032l-0.222,0.03l-0.221,0.029l-0.223,0.028l-0.222,0.026l-0.223,0.025l-0.224,0.023l-0.223,0.022l-0.225,0.021l-0.224,0.019l-0.225,0.018l-0.226,0.017l-0.226,0.015l-0.226,0.013l-0.226,0.013l-0.227,0.01l-0.227,0.01l-0.228,0.008l-0.228,0.006l-0.228,0.005l-0.229,0.004l-0.229,0.002l-0.23,0.001l-3769.01,0l-0.23,-0.001l-0.229,-0.002l-0.229,-0.004l-0.228,-0.005l-0.228,-0.006l-0.228,-0.008l-0.227,-0.01l-0.227,-0.01l-0.226,-0.013l-0.226,-0.013l-0.226,-0.015l-0.226,-0.017l-0.225,-0.018l-0.224,-0.019l-0.225,-0.021l-0.223,-0.022l-0.224,-0.023l-0.223,-0.025l-0.222,-0.026l-0.223,-0.028l-0.221,-0.029l-0.222,-0.03l-0.22,-0.032l-0.221,-0.033l-0.22,-0.034l-0.219,-0.036l-0.22,-0.037l-0.218,-0.038l-0.218,-0.04l-0.218,-0.041l-0.217,-0.042l-0.217,-0.044l-0.216,-0.045l-0.216,-0.046l-0.216,-0.048l-0.214,-0.049l-0.215,-0.05l-0.214,-0.052l-0.213,-0.052l-0.213,-0.055l-0.212,-0.055l-0.212,-0.057l-0.211,-0.058l-0.211,-0.059l-0.21,-0.06l-0.21,-0.062l-0.209,-0.063l-0.209,-0.064l-0.208,-0.066l-0.207,-0.066l-0.207,-0.068l-0.207,-0.07l-0.206,-0.07l-0.205,-0.072l-0.205,-0.072l-0.204,-0.075l-0.203,-0.075l-0.203,-0.076l-0.203,-0.078l-0.201,-0.079l-0.201,-0.08l-0.201,-0.081l-0.2,-0.083l-0.199,-0.084l-0.199,-0.084l-0.198,-0.086l-0.198,-0.088l-0.196,-0.088l-0.197,-0.089l-0.195,-0.091l-0.195,-0.092l-0.194,-0.093l-0.194,-0.094l-0.193,-0.095l-0.192,-0.096l-0.192,-0.098l-0.191,-0.098l-0.19,-0.1l-0.19,-0.101l-0.189,-0.102l-0.188,-0.103l-0.188,-0.104l-0.187,-0.106l-0.186,-0.106l-0.185,-0.107l-0.185,-0.109l-0.184,-0.109l-0.183,-0.111l-0.183,-0.112l-0.182,-0.113l-0.181,-0.114l-0.18,-0.115l-0.18,-0.116l-0.179,-0.117l-0.178,-0.118l-0.178,-0.119l-0.176,-0.12l-0.176,-0.121l-0.175,-0.122l-0.175,-0.124l-0.173,-0.124l-0.173,-0.125l-0.172,-0.127l-0.171,-0.127l-0.171,-0.128l-0.169,-0.129l-0.169,-0.131l-0.168,-0.131l-0.168,-0.132l-0.166,-0.134l-0.166,-0.134l-0.164,-0.135l-0.164,-0.136l-0.164,-0.137l-0.162,-0.138l-0.161,-0.139l-0.161,-0.14l-0.16,-0.141l-0.159,-0.142l-0.158,-0.143l-0.157,-0.144l-0.156,-0.144l-0.156,-0.146l-0.154,-0.146l-0.154,-0.148l-0.153,-0.148l-0.152,-0.149l-0.151,-0.151l-0.15,-0.151l-0.149,-0.152l-0.148,-0.152l-0.148,-0.154l-0.146,-0.155l-0.146,-0.155l-0.145,-0.156l-0.143,-0.158l-0.143,-0.158l-0.142,-0.159l-0.141,-0.159l-0.14,-0.161l-0.139,-0.161l-0.138,-0.163l-0.137,-0.163l-0.136,-0.164l-0.135,-0.165l-0.135,-0.165l-0.133,-0.167l-0.132,-0.167l-0.131,-0.168l-0.131,-0.169l-0.129,-0.169l-0.128,-0.171l-0.128,-0.171l-0.126,-0.172l-0.125,-0.173l-0.125,-0.174l-0.123,-0.174l-0.122,-0.175l-0.121,-0.176l-0.12,-0.177l-0.12,-0.177l-0.118,-0.178l-0.117,-0.179l-0.116,-0.18l-0.115,-0.18l-0.114,-0.181l-0.112,-0.182l-0.112,-0.183l-0.111,-0.183l-0.109,-0.184l-0.109,-0.185l-0.107,-0.186l-0.107,-0.186l-0.105,-0.187l-0.104,-0.187l-0.103,-0.188l-0.102,-0.189l-0.101,-0.19l-0.1,-0.19l-0.098,-0.191l-0.098,-0.192l-0.096,-0.192l-0.095,-0.193l-0.095,-0.194l-0.092,-0.194l-0.092,-0.195l-0.091,-0.196l-0.089,-0.196l-0.089,-0.197l-0.087,-0.197l-0.086,-0.198l-0.085,-0.199l-0.083,-0.199l-0.083,-0.2l-0.081,-0.201l-0.08,-0.201l-0.079,-0.202l-0.078,-0.202l-0.076,-0.203l-0.076,-0.204l-0.074,-0.204l-0.073,-0.204l-0.071,-0.206l-0.071,-0.206l-0.069,-0.206l-0.068,-0.207l-0.067,-0.207l-0.065,-0.208l-0.064,-0.209l-0.063,-0.209l-0.062,-0.21l-0.06,-0.21l-0.06,-0.211l-0.058,-0.211l-0.056,-0.212l-0.056,-0.212l-0.054,-0.213l-0.053,-0.214l-0.051,-0.213l-0.05,-0.215l-0.049,-0.215l-0.048,-0.215l-0.046,-0.216l-0.045,-0.216l-0.044,-0.217l-0.042,-0.217l-0.041,-0.218l-0.04,-0.218l-0.039,-0.219l-0.037,-0.219l-0.035,-0.219l-0.035,-0.22l-0.033,-0.221l-0.031,-0.221l-0.031,-0.221l-0.029,-0.222l-0.027,-0.222l-0.026,-0.222l-0.025,-0.223l-0.024,-0.224l-0.022,-0.224l-0.02,-0.224l-0.02,-0.225l-0.017,-0.225l-0.017,-0.225l-0.015,-0.226l-0.014,-0.226l-0.012,-0.226l-0.011,-0.227l-0.009,-0.228l-0.008,-0.227l-0.006,-0.228l-0.005,-0.229l-0.004,-0.228l-0.002,-0.23l-0.001,-0.229l0,-70.991l0.001,-0.23l0.002,-0.229l0.004,-0.229l0.005,-0.228l0.006,-0.228l0.008,-0.228l0.009,-0.227l0.011,-0.227l0.012,-0.226l0.014,-0.226l0.015,-0.226l0.017,-0.226l0.017,-0.225l0.02,-0.224l0.02,-0.225l0.022,-0.223l0.024,-0.224l0.025,-0.223l0.026,-0.222l0.027,-0.223l0.029,-0.221l0.031,-0.222l0.031,-0.22l0.033,-0.221l0.035,-0.22l0.035,-0.219l0.037,-0.22l0.039,-0.218l0.04,-0.218l0.041,-0.218l0.042,-0.217l0.044,-0.217l0.045,-0.216l0.046,-0.216l0.048,-0.216l0.049,-0.214l0.05,-0.215l0.051,-0.214l0.053,-0.213l0.054,-0.213l0.056,-0.212l0.056,-0.212l0.058,-0.211l0.06,-0.211l0.06,-0.21l0.062,-0.21l0.063,-0.209l0.064,-0.209l0.065,-0.208l0.067,-0.207l0.068,-0.207l0.069,-0.207l0.071,-0.206l0.071,-0.205l0.073,-0.205l0.074,-0.204l0.076,-0.203l0.076,-0.203l0.078,-0.203l0.079,-0.201l0.08,-0.201l0.081,-0.201l0.083,-0.2l0.083,-0.199l0.085,-0.199l0.086,-0.198l0.087,-0.198l0.089,-0.196l0.089,-0.197l0.091,-0.195l0.092,-0.195l0.092,-0.194l0.095,-0.194l0.095,-0.193l0.096,-0.192l0.098,-0.192l0.098,-0.191l0.1,-0.19l0.101,-0.19l0.102,-0.189l0.103,-0.188l0.104,-0.188l0.105,-0.187l0.107,-0.186l0.107,-0.185l0.109,-0.185l0.109,-0.184l0.111,-0.183l0.112,-0.183l0.112,-0.182l0.114,-0.181l0.115,-0.18l0.116,-0.18l0.117,-0.179l0.118,-0.178l0.12,-0.178l0.12,-0.176l0.121,-0.176l0.122,-0.175l0.123,-0.175l0.125,-0.173l0.125,-0.173l0.126,-0.172l0.128,-0.171l0.128,-0.171l0.129,-0.169l0.131,-0.169l0.131,-0.168l0.132,-0.168l0.133,-0.166l0.135,-0.166l0.135,-0.164l0.136,-0.164l0.137,-0.164l0.138,-0.162l0.139,-0.161l0.14,-0.161l0.141,-0.16l0.142,-0.159l0.143,-0.158l0.143,-0.157l0.145,-0.156l0.146,-0.156l0.146,-0.154l0.148,-0.154l0.148,-0.153l0.149,-0.152l0.15,-0.151l0.151,-0.15l0.152,-0.149l0.153,-0.148l0.154,-0.148l0.154,-0.146l0.156,-0.146l0.156,-0.145l0.157,-0.143l0.158,-0.143l0.159,-0.142l0.16,-0.141l0.161,-0.14l0.161,-0.139l0.162,-0.138l0.164,-0.137l0.164,-0.136l0.164,-0.135l0.166,-0.135l0.166,-0.133l0.168,-0.132l0.168,-0.131l0.169,-0.131l0.169,-0.129l0.171,-0.128l0.171,-0.128l0.172,-0.126l0.173,-0.125l0.173,-0.125l0.175,-0.123l0.175,-0.122l0.176,-0.121l0.176,-0.12l0.178,-0.12l0.178,-0.118l0.179,-0.117l0.18,-0.116l0.18,-0.115l0.181,-0.114l0.182,-0.112l0.183,-0.112l0.183,-0.111l0.184,-0.109l0.185,-0.109l0.185,-0.107l0.186,-0.107l0.187,-0.105l0.188,-0.104l0.188,-0.103l0.189,-0.102l0.19,-0.101l0.19,-0.1l0.191,-0.098l0.192,-0.098l0.192,-0.096l0.193,-0.095l0.194,-0.095l0.194,-0.092l0.195,-0.092l0.195,-0.091l0.197,-0.089l0.196,-0.089l0.198,-0.087l0.198,-0.086l0.199,-0.085l0.199,-0.083l0.2,-0.083l0.201,-0.081l0.201,-0.08l0.201,-0.079l0.203,-0.078l0.203,-0.076l0.203,-0.076l0.204,-0.074l0.205,-0.073l0.205,-0.071l0.206,-0.071l0.207,-0.069l0.207,-0.068l0.207,-0.067l0.208,-0.065l0.209,-0.064l0.209,-0.063l0.21,-0.062l0.21,-0.06l0.211,-0.06l0.211,-0.058l0.212,-0.056l0.212,-0.056l0.213,-0.054l0.213,-0.053l0.214,-0.051l0.215,-0.05l0.214,-0.049l0.216,-0.048l0.216,-0.046l0.216,-0.045l0.217,-0.044l0.217,-0.042l0.218,-0.041l0.218,-0.04l0.218,-0.039l0.22,-0.037l0.219,-0.035l0.22,-0.035l0.221,-0.033l0.22,-0.031l0.222,-0.031l0.221,-0.029l0.223,-0.027l0.222,-0.026l0.223,-0.025l0.224,-0.024l0.223,-0.022l0.225,-0.02l0.224,-0.02l0.225,-0.017l0.226,-0.017l0.226,-0.015l0.226,-0.014l0.226,-0.012l0.227,-0.011l0.227,-0.009l0.228,-0.008l0.228,-0.006l0.228,-0.005l0.229,-0.004l0.229,-0.002l0.23,-0.001l3769.01,0Z"/></svg>