<svg id="svg" xmlns="http://www.w3.org/2000/svg" xmlns:xlink="http://www.w3.org/1999/xlink" width="400" height="400" viewBox="0, 0, 400,400"><g id="svgg"><path id="path0" d="M154.894 119.186 C 149.007 122.714,147.656 126.181,147.656 137.764 L 147.656 147.656 137.764 147.656 C 126.117 147.656,122.650 149.020,119.161 154.972 L 117.188 158.340 117.188 215.234 L 117.188 272.128 119.161 275.497 C 120.319 277.471,122.529 279.681,124.503 280.839 L 127.872 282.813 184.766 282.813 L 241.660 282.813 245.028 280.839 C 250.980 277.350,252.344 273.883,252.344 262.236 L 252.344 252.344 262.236 252.344 C 273.883 252.344,277.350 250.980,280.839 245.028 L 282.813 241.660 282.813 184.766 L 282.813 127.872 280.839 124.503 C 279.681 122.529,277.471 120.319,275.497 119.161 L 272.128 117.188 215.166 117.195 L 158.203 117.202 154.894 119.186 M267.969 127.332 C 272.768 128.668,272.579 126.418,272.658 183.332 C 272.697 212.050,272.713 236.324,272.693 237.274 C 272.612 241.104,269.987 242.188,260.790 242.188 L 252.344 242.188 252.344 200.264 L 252.344 158.340 250.370 154.972 C 249.213 152.998,247.002 150.787,245.028 149.630 L 241.660 147.656 199.736 147.656 L 157.813 147.656 157.837 139.258 C 157.865 130.058,158.440 128.500,162.230 127.363 C 165.391 126.416,264.571 126.386,267.969 127.332 M147.656 199.345 L 147.656 241.660 149.630 245.028 C 150.787 247.002,152.998 249.213,154.972 250.370 L 158.340 252.344 200.148 252.344 L 241.955 252.344 242.419 258.912 C 242.939 266.278,242.163 270.252,239.934 271.640 C 238.737 272.385,153.927 273.218,132.257 272.698 C 127.135 272.575,127.341 274.994,127.369 215.282 C 127.398 151.302,126.024 157.244,140.820 157.098 L 147.656 157.031 147.656 199.345 M237.398 157.783 C 242.325 159.196,242.135 157.445,242.163 201.711 L 242.188 242.094 203.320 242.336 C 181.943 242.469,163.447 242.328,162.217 242.022 C 157.738 240.907,157.864 242.179,157.837 197.852 L 157.813 157.031 196.294 157.031 C 218.609 157.031,235.877 157.347,237.398 157.783 " stroke="none" fill="#000000" fill-rule="evenodd"></path></g></svg>